<svg width="128" height="128" viewBox="0 0 128 128" fill="none" xmlns="http://www.w3.org/2000/svg">
<circle cx="64" cy="64" r="64" fill="url(#paint0_linear_303_3)"/>
<path d="M41.4876 84.9804C35.9827 84.9804 31.6873 83.4443 28.6152 80.3652C25.5361 77.2722 24 72.8308 24 67.048V44.556H31.3954V66.77C31.3954 74.5963 34.7733 78.5025 41.5432 78.5025C48.2713 78.5025 51.6354 74.5963 51.6354 66.77V44.556H58.9195V67.048C58.9195 72.8308 57.3904 77.2722 54.3322 80.3652C51.2739 83.4443 46.9924 84.9804 41.4876 84.9804Z" fill="#0071DB"/>
<path d="M96.4656 64.0454H103.472V79.9204C101.428 81.5538 99.0373 82.8049 96.2988 83.6737C93.5742 84.5425 90.7662 84.9804 87.8747 84.9804C83.8156 84.9804 80.1527 84.1046 76.8929 82.3392C73.6261 80.5807 71.0614 78.1411 69.1917 75.0272C67.3359 71.9134 66.4115 68.4034 66.4115 64.4902C66.4115 60.584 67.3359 57.067 69.1917 53.9532C71.0614 50.8393 73.64 48.4066 76.9207 46.6412C80.2013 44.8827 83.8851 44 87.986 44C91.3361 44 94.3805 44.556 97.1051 45.6681C99.8297 46.7663 102.123 48.3649 104 50.4779L99.3292 55.0375C96.2849 52.0001 92.6289 50.4779 88.3474 50.4779C85.5255 50.4779 83.0233 51.0757 80.8408 52.2572C78.6722 53.4249 76.9624 55.0792 75.7252 57.206C74.481 59.3399 73.8625 61.7656 73.8625 64.4902C73.8625 67.1592 74.481 69.5641 75.7252 71.691C76.9624 73.8039 78.6722 75.4721 80.8408 76.6954C83.0233 77.9048 85.5116 78.5025 88.2918 78.5025C91.3848 78.5025 94.1094 77.8213 96.4656 76.4451V64.0454Z" fill="#0071DB"/>
<defs>
<linearGradient id="paint0_linear_303_3" x1="128" y1="64" x2="-2.56" y2="64" gradientUnits="userSpaceOnUse">
<stop stop-color="#DFE9F3" stop-opacity="0.8"/>
<stop offset="1" stop-color="white"/>
</linearGradient>
</defs>
</svg>