<svg width="255" height="387" viewBox="0 0 255 387" fill="none" xmlns="http://www.w3.org/2000/svg">
<path d="M0 374V13C0 5.8203 5.82029 0 13 0H241C248.18 0 254 5.8203 254 13V374C254 381.18 248.18 387 241 387H13C5.8203 387 0 381.18 0 374Z" fill="#F2F2F2"/>
<path d="M63.1341 174.118C76.3889 174.118 87.1341 163.373 87.1341 150.118C87.1341 136.863 76.3889 126.118 63.1341 126.118C49.8793 126.118 39.1341 136.863 39.1341 150.118C39.1341 163.373 49.8793 174.118 63.1341 174.118Z" fill="#00539F" fill-opacity="0.8"/>
<path d="M191.801 174.118C205.056 174.118 215.801 163.373 215.801 150.118C215.801 136.863 205.056 126.118 191.801 126.118C178.546 126.118 167.801 136.863 167.801 150.118C167.801 163.373 178.546 174.118 191.801 174.118Z" fill="#00539F" fill-opacity="0.8"/>
<path d="M127.467 174.118C140.722 174.118 151.467 163.373 151.467 150.118C151.467 136.863 140.722 126.118 127.467 126.118C114.213 126.118 103.467 136.863 103.467 150.118C103.467 163.373 114.213 174.118 127.467 174.118Z" fill="#00539F" fill-opacity="0.8"/>
<path d="M63.1341 243.118C76.3889 243.118 87.1341 232.373 87.1341 219.118C87.1341 205.863 76.3889 195.118 63.1341 195.118C49.8793 195.118 39.1341 205.863 39.1341 219.118C39.1341 232.373 49.8793 243.118 63.1341 243.118Z" fill="#00539F" fill-opacity="0.8"/>
<path d="M191.801 243.118C205.056 243.118 215.801 232.373 215.801 219.118C215.801 205.863 205.056 195.118 191.801 195.118C178.546 195.118 167.801 205.863 167.801 219.118C167.801 232.373 178.546 243.118 191.801 243.118Z" fill="#00539F" fill-opacity="0.8"/>
<path d="M127.467 243.118C140.722 243.118 151.467 232.373 151.467 219.118C151.467 205.863 140.722 195.118 127.467 195.118C114.213 195.118 103.467 205.863 103.467 219.118C103.467 232.373 114.213 243.118 127.467 243.118Z" fill="#00539F" fill-opacity="0.8"/>
<path d="M63.1341 312.118C76.3889 312.118 87.1341 301.373 87.1341 288.118C87.1341 274.863 76.3889 264.118 63.1341 264.118C49.8793 264.118 39.1341 274.863 39.1341 288.118C39.1341 301.373 49.8793 312.118 63.1341 312.118Z" fill="#00539F" fill-opacity="0.8"/>
<path d="M166 363C193.614 363 216 356.284 216 348C216 339.716 193.614 333 166 333C138.386 333 116 339.716 116 348C116 356.284 138.386 363 166 363Z" fill="#00539F"/>
<path d="M191.801 312.118C205.056 312.118 215.801 301.373 215.801 288.118C215.801 274.863 205.056 264.118 191.801 264.118C178.546 264.118 167.801 274.863 167.801 288.118C167.801 301.373 178.546 312.118 191.801 312.118Z" fill="#00539F" fill-opacity="0.8"/>
<path d="M127.467 312.118C140.722 312.118 151.467 301.373 151.467 288.118C151.467 274.863 140.722 264.118 127.467 264.118C114.213 264.118 103.467 274.863 103.467 288.118C103.467 301.373 114.213 312.118 127.467 312.118Z" fill="#00539F" fill-opacity="0.8"/>
<path d="M241.874 0H12.3404C5.53435 0 0 5.53432 0 12.3403V96.6596C0 103.466 5.53435 109 12.3404 109H241.874C248.68 109 254.214 103.466 254.214 96.6596V12.3403C254.214 5.53432 248.68 0 241.874 0Z" fill="#00539F"/>
<path d="M223.682 39H30.3175C28.4853 39 27 45.7157 27 54C27 62.2843 28.4853 69 30.3175 69H223.682C225.515 69 227 62.2843 227 54C227 45.7157 225.515 39 223.682 39Z" fill="white"/>
</svg>