<svg width="128" height="128" viewBox="0 0 128 128" fill="none" xmlns="http://www.w3.org/2000/svg">
<rect width="128" height="128" rx="64" fill="white"/>
<path d="M12.9261 68.3148C12.1166 68.3148 11.4172 68.1723 10.8277 67.8861C10.241 67.597 9.78973 67.1908 9.47384 66.6676C9.15795 66.1416 9 65.5394 9 64.8625C9 63.9529 9.2059 63.1293 9.62051 62.3918C10.0379 61.6514 10.6218 61.069 11.3748 60.6431C12.1307 60.2144 12.9966 60 13.9753 60C14.6776 60 15.2967 60.1171 15.8312 60.3497C16.3643 60.5796 16.7704 60.9138 17.0497 61.3538L15.9666 62.262C15.5111 61.6302 14.813 61.3143 13.8738 61.3143C13.2039 61.3143 12.613 61.4695 12.1025 61.7769C11.5948 62.0857 11.2014 62.5046 10.9236 63.0348C10.6486 63.5623 10.5118 64.1405 10.5118 64.7723C10.5118 65.4576 10.729 66.0006 11.1661 66.4025C11.6061 66.8016 12.2295 67.0004 13.0389 67.0004C13.9711 67.0004 14.7383 66.6888 15.3404 66.064L16.2204 67.0117C15.8326 67.4517 15.3574 67.7789 14.7933 67.9932C14.232 68.2076 13.6101 68.3148 12.9261 68.3148Z" fill="#292929"/>
<path d="M22.9192 66.3292H18.8521L17.6844 68.202H16.0768L21.3341 60.1128H22.8233L24.8372 68.202H23.3423L22.9192 66.3292ZM22.6372 65.1502L21.8192 61.5964L19.5911 65.1502H22.6372Z" fill="#292929"/>
<path d="M27.4917 60.1128H28.9922L27.6271 66.9327H31.8578L31.6039 68.202H25.8727L27.4917 60.1128Z" fill="#292929"/>
<path d="M36.8921 68.3148C36.0826 68.3148 35.3831 68.1723 34.7936 67.8861C34.207 67.597 33.7557 67.1908 33.4398 66.6676C33.1239 66.1416 32.9659 65.5394 32.9659 64.8625C32.9659 63.9529 33.1718 63.1293 33.5864 62.3918C34.0039 61.6514 34.5877 61.069 35.3408 60.6431C36.0967 60.2144 36.9626 60 37.9413 60C38.6436 60 39.2627 60.1171 39.7971 60.3497C40.3302 60.5796 40.7364 60.9138 41.0156 61.3538L39.9325 62.262C39.477 61.6302 38.779 61.3143 37.8397 61.3143C37.1699 61.3143 36.579 61.4695 36.0685 61.7769C35.5608 62.0857 35.1673 62.5046 34.8895 63.0348C34.6145 63.5623 34.4777 64.1405 34.4777 64.7723C34.4777 65.4576 34.6949 66.0006 35.1321 66.4025C35.5721 66.8016 36.1954 67.0004 37.0049 67.0004C37.937 67.0004 38.7042 66.6888 39.3064 66.064L40.1864 67.0117C39.7986 67.4517 39.3233 67.7789 38.7592 67.9932C38.1979 68.2076 37.576 68.3148 36.8921 68.3148Z" fill="#292929"/>
<path d="M44.8826 68.3148C43.8969 68.3148 43.1241 68.0694 42.5642 67.5758C42.0072 67.0836 41.7293 66.4067 41.7293 65.5451C41.7293 65.2898 41.7604 65.0007 41.8252 64.6764L42.7334 60.1128H44.2396L43.3257 64.6538C43.2721 64.9626 43.2468 65.201 43.2468 65.3702C43.2468 65.9117 43.3991 66.3207 43.7037 66.5943C44.0111 66.8651 44.4553 67.0004 45.0349 67.0004C45.6808 67.0004 46.1984 66.8129 46.5862 66.4363C46.9768 66.057 47.2575 65.459 47.4267 64.6425L48.3293 60.1128H49.8072L48.8821 64.7497C48.6409 65.9343 48.1854 66.8256 47.517 67.4235C46.8471 68.0186 45.9685 68.3148 44.8826 68.3148Z" fill="#292929"/>
<path d="M51.9196 60.1128H53.4201L52.055 66.9327H56.2857L56.0319 68.202H50.3006L51.9196 60.1128Z" fill="#292929"/>
<path d="M62.9164 66.3292H58.8492L57.6815 68.202H56.0739L61.3312 60.1128H62.8205L64.8343 68.202H63.3394L62.9164 66.3292ZM62.6343 65.1502L61.8164 61.5964L59.5882 65.1502H62.6343Z" fill="#292929"/>
<path d="M67.4888 60.1128H70.7549C71.563 60.1128 72.2639 60.251 72.859 60.5246C73.4527 60.7996 73.9054 61.1874 74.2185 61.6867C74.5301 62.1873 74.6867 62.7754 74.6867 63.4523C74.6867 64.4 74.4751 65.2334 74.0549 65.9512C73.6332 66.6662 73.0409 67.2204 72.278 67.6153C71.5179 68.0073 70.6421 68.202 69.6493 68.202H65.8698L67.4888 60.1128ZM69.6944 66.9327C70.4009 66.9327 71.0158 66.7861 71.539 66.4928C72.065 66.1994 72.4669 65.7975 72.7462 65.2856C73.0282 64.7751 73.1692 64.1955 73.1692 63.5482C73.1692 62.8684 72.9492 62.3382 72.5093 61.9574C72.0721 61.5781 71.4346 61.3877 70.597 61.3877H68.7355L67.6242 66.9327H69.6944Z" fill="#292929"/>
<path d="M79.4546 68.3148C78.6536 68.3148 77.9611 68.1723 77.3787 67.8861C76.7991 67.597 76.3549 67.1922 76.0474 66.6733C75.7386 66.1515 75.5849 65.5479 75.5849 64.8625C75.5849 63.9529 75.7894 63.1293 76.1997 62.3918C76.6129 61.6514 77.1954 61.069 77.9484 60.6431C78.7043 60.2144 79.5674 60 80.5376 60C81.3387 60 82.0297 60.1453 82.6135 60.4344C83.196 60.7249 83.6402 61.1282 83.9448 61.6472C84.2522 62.1661 84.4073 62.7683 84.4073 63.4523C84.4073 64.3633 84.2 65.1883 83.7868 65.9286C83.3765 66.6662 82.794 67.2486 82.0381 67.6773C81.2851 68.1032 80.4248 68.3148 79.4546 68.3148ZM79.5787 67.0004C80.233 67.0004 80.8112 66.8453 81.3161 66.5322C81.8238 66.2206 82.213 65.8017 82.4838 65.2743C82.7574 64.7483 82.8956 64.1729 82.8956 63.5482C82.8956 62.8684 82.677 62.3269 82.2412 61.9236C81.8083 61.5174 81.1948 61.3143 80.4023 61.3143C79.7479 61.3143 79.1669 61.4709 78.6592 61.7825C78.1543 62.0956 77.7679 62.5159 77.4972 63.0461C77.2292 63.5735 77.0967 64.1489 77.0967 64.7723C77.0967 65.4492 77.311 65.9907 77.7397 66.3968C78.1713 66.8002 78.7847 67.0004 79.5787 67.0004Z" fill="#292929"/>
<path d="M92.9703 62.5554C92.9703 63.331 92.7616 63.9868 92.3441 64.5241C91.9267 65.0585 91.3457 65.4294 90.6011 65.6353L92.0452 68.202H90.4488L89.1232 65.8328H87.1093L86.6468 68.202H85.135L86.754 60.1128H89.896C90.8733 60.1128 91.6292 60.3272 92.1636 60.7559C92.7009 61.1846 92.9703 61.7854 92.9703 62.5554ZM89.157 64.5974C89.8861 64.5974 90.4502 64.4338 90.8493 64.1066C91.2512 63.7794 91.4529 63.3084 91.4529 62.6907C91.4529 62.2592 91.3034 61.9334 91.0072 61.7149C90.7139 61.4977 90.288 61.3877 89.7324 61.3877H88.0119L87.3632 64.5974H89.157Z" fill="#292929"/>
<path d="M99.2753 66.3292H95.2081L94.0405 68.202H92.4328L97.6902 60.1128H99.1794L101.193 68.202H99.6983L99.2753 66.3292ZM98.9932 65.1502L98.1753 61.5964L95.9471 65.1502H98.9932Z" fill="#292929"/>
<path d="M106.316 68.3148C105.2 68.3148 104.328 68.0031 103.705 67.3784C103.08 66.7508 102.768 65.8497 102.768 64.6764V60.1128H104.269V64.62C104.269 66.2079 104.954 67.0004 106.328 67.0004C107.693 67.0004 108.375 66.2079 108.375 64.62V60.1128H109.853V64.6764C109.853 65.8497 109.543 66.7508 108.923 67.3784C108.302 68.0031 107.433 68.3148 106.316 68.3148Z" fill="#0071DB"/>
<path d="M117.471 64.0671H118.893V67.2881C118.478 67.6195 117.993 67.8734 117.437 68.0497C116.885 68.2259 116.315 68.3148 115.728 68.3148C114.905 68.3148 114.161 68.1371 113.5 67.7789C112.837 67.4221 112.317 66.9271 111.938 66.2953C111.561 65.6635 111.373 64.9514 111.373 64.1574C111.373 63.3648 111.561 62.6513 111.938 62.0195C112.317 61.3877 112.84 60.8941 113.506 60.5359C114.171 60.1791 114.919 60 115.751 60C116.431 60 117.048 60.1128 117.601 60.3385C118.154 60.5613 118.619 60.8856 119 61.3143L118.052 62.2395C117.435 61.6232 116.693 61.3143 115.824 61.3143C115.252 61.3143 114.744 61.4356 114.301 61.6754C113.861 61.9123 113.514 62.2479 113.263 62.6795C113.011 63.1124 112.885 63.6046 112.885 64.1574C112.885 64.6989 113.011 65.1869 113.263 65.6184C113.514 66.0471 113.861 66.3856 114.301 66.6338C114.744 66.8792 115.249 67.0004 115.813 67.0004C116.44 67.0004 116.993 66.8622 117.471 66.583V64.0671Z" fill="#0071DB"/>
</svg>